<mxfile host="app.diagrams.net" agent="Mozilla/5.0 (Windows NT 10.0; Win64; x64) AppleWebKit/537.36 (KHTML, like Gecko) Chrome/131.0.0.0 Safari/537.36" version="24.9.2">
  <diagram name="Страница — 1" id="psGtiRN9KwMEXoTtENa7">
    <mxGraphModel dx="2021" dy="732" grid="1" gridSize="10" guides="1" tooltips="1" connect="1" arrows="1" fold="1" page="1" pageScale="1" pageWidth="827" pageHeight="1169" math="0" shadow="0">
      <root>
        <mxCell id="0" />
        <mxCell id="1" parent="0" />
        <mxCell id="VF3CCnbhCRNSgx0V-OLS-3" style="edgeStyle=orthogonalEdgeStyle;rounded=0;orthogonalLoop=1;jettySize=auto;html=1;exitX=0.5;exitY=1;exitDx=0;exitDy=0;entryX=0.5;entryY=0;entryDx=0;entryDy=0;" edge="1" parent="1" source="VF3CCnbhCRNSgx0V-OLS-1" target="VF3CCnbhCRNSgx0V-OLS-2">
          <mxGeometry relative="1" as="geometry" />
        </mxCell>
        <mxCell id="VF3CCnbhCRNSgx0V-OLS-1" value="" style="ellipse;whiteSpace=wrap;html=1;aspect=fixed;" vertex="1" parent="1">
          <mxGeometry x="360" y="160" width="40" height="40" as="geometry" />
        </mxCell>
        <mxCell id="VF3CCnbhCRNSgx0V-OLS-6" style="edgeStyle=orthogonalEdgeStyle;rounded=0;orthogonalLoop=1;jettySize=auto;html=1;exitX=1;exitY=0.5;exitDx=0;exitDy=0;" edge="1" parent="1" source="VF3CCnbhCRNSgx0V-OLS-2" target="VF3CCnbhCRNSgx0V-OLS-5">
          <mxGeometry relative="1" as="geometry" />
        </mxCell>
        <mxCell id="VF3CCnbhCRNSgx0V-OLS-7" style="edgeStyle=orthogonalEdgeStyle;rounded=0;orthogonalLoop=1;jettySize=auto;html=1;exitX=0;exitY=0.5;exitDx=0;exitDy=0;" edge="1" parent="1" source="VF3CCnbhCRNSgx0V-OLS-2" target="VF3CCnbhCRNSgx0V-OLS-4">
          <mxGeometry relative="1" as="geometry" />
        </mxCell>
        <mxCell id="VF3CCnbhCRNSgx0V-OLS-2" value="1. Старт" style="rounded=0;whiteSpace=wrap;html=1;" vertex="1" parent="1">
          <mxGeometry x="320" y="280" width="120" height="60" as="geometry" />
        </mxCell>
        <mxCell id="VF3CCnbhCRNSgx0V-OLS-12" style="edgeStyle=orthogonalEdgeStyle;rounded=0;orthogonalLoop=1;jettySize=auto;html=1;exitX=0.5;exitY=1;exitDx=0;exitDy=0;entryX=0.5;entryY=0;entryDx=0;entryDy=0;" edge="1" parent="1" source="VF3CCnbhCRNSgx0V-OLS-4" target="VF3CCnbhCRNSgx0V-OLS-9">
          <mxGeometry relative="1" as="geometry" />
        </mxCell>
        <mxCell id="VF3CCnbhCRNSgx0V-OLS-14" style="edgeStyle=orthogonalEdgeStyle;rounded=0;orthogonalLoop=1;jettySize=auto;html=1;exitX=0.5;exitY=1;exitDx=0;exitDy=0;" edge="1" parent="1" source="VF3CCnbhCRNSgx0V-OLS-4" target="VF3CCnbhCRNSgx0V-OLS-10">
          <mxGeometry relative="1" as="geometry" />
        </mxCell>
        <mxCell id="VF3CCnbhCRNSgx0V-OLS-15" style="edgeStyle=orthogonalEdgeStyle;rounded=0;orthogonalLoop=1;jettySize=auto;html=1;exitX=0.5;exitY=1;exitDx=0;exitDy=0;entryX=0.5;entryY=0;entryDx=0;entryDy=0;" edge="1" parent="1" source="VF3CCnbhCRNSgx0V-OLS-4" target="VF3CCnbhCRNSgx0V-OLS-8">
          <mxGeometry relative="1" as="geometry" />
        </mxCell>
        <mxCell id="VF3CCnbhCRNSgx0V-OLS-19" style="edgeStyle=orthogonalEdgeStyle;rounded=0;orthogonalLoop=1;jettySize=auto;html=1;exitX=0;exitY=0.5;exitDx=0;exitDy=0;entryX=0;entryY=0.5;entryDx=0;entryDy=0;" edge="1" parent="1" source="VF3CCnbhCRNSgx0V-OLS-4" target="VF3CCnbhCRNSgx0V-OLS-17">
          <mxGeometry relative="1" as="geometry">
            <Array as="points">
              <mxPoint x="-40" y="430" />
              <mxPoint x="-40" y="750" />
            </Array>
          </mxGeometry>
        </mxCell>
        <mxCell id="VF3CCnbhCRNSgx0V-OLS-4" value="2.1. Добавить параметры" style="rounded=0;whiteSpace=wrap;html=1;" vertex="1" parent="1">
          <mxGeometry x="160" y="400" width="120" height="60" as="geometry" />
        </mxCell>
        <mxCell id="VF3CCnbhCRNSgx0V-OLS-18" style="edgeStyle=orthogonalEdgeStyle;rounded=0;orthogonalLoop=1;jettySize=auto;html=1;exitX=0.5;exitY=1;exitDx=0;exitDy=0;entryX=1;entryY=0.5;entryDx=0;entryDy=0;" edge="1" parent="1" source="VF3CCnbhCRNSgx0V-OLS-5" target="VF3CCnbhCRNSgx0V-OLS-17">
          <mxGeometry relative="1" as="geometry" />
        </mxCell>
        <mxCell id="VF3CCnbhCRNSgx0V-OLS-5" value="2.2. Искать без параметров" style="rounded=0;whiteSpace=wrap;html=1;" vertex="1" parent="1">
          <mxGeometry x="480" y="400" width="120" height="60" as="geometry" />
        </mxCell>
        <mxCell id="VF3CCnbhCRNSgx0V-OLS-8" value="2.1.1. Город" style="rounded=0;whiteSpace=wrap;html=1;" vertex="1" parent="1">
          <mxGeometry y="520" width="120" height="60" as="geometry" />
        </mxCell>
        <mxCell id="VF3CCnbhCRNSgx0V-OLS-16" style="edgeStyle=orthogonalEdgeStyle;rounded=0;orthogonalLoop=1;jettySize=auto;html=1;exitX=0.5;exitY=0;exitDx=0;exitDy=0;entryX=0.5;entryY=1;entryDx=0;entryDy=0;" edge="1" parent="1" source="VF3CCnbhCRNSgx0V-OLS-9" target="VF3CCnbhCRNSgx0V-OLS-4">
          <mxGeometry relative="1" as="geometry" />
        </mxCell>
        <mxCell id="VF3CCnbhCRNSgx0V-OLS-9" value="2.1.2. Минимальная стоимость" style="rounded=0;whiteSpace=wrap;html=1;" vertex="1" parent="1">
          <mxGeometry x="160" y="520" width="120" height="60" as="geometry" />
        </mxCell>
        <mxCell id="VF3CCnbhCRNSgx0V-OLS-10" value="2.1.3. Максимальная стоимость" style="rounded=0;whiteSpace=wrap;html=1;" vertex="1" parent="1">
          <mxGeometry x="320" y="520" width="120" height="60" as="geometry" />
        </mxCell>
        <mxCell id="VF3CCnbhCRNSgx0V-OLS-20" style="edgeStyle=orthogonalEdgeStyle;rounded=0;orthogonalLoop=1;jettySize=auto;html=1;exitX=0;exitY=0.5;exitDx=0;exitDy=0;entryX=0;entryY=0.5;entryDx=0;entryDy=0;" edge="1" parent="1" source="VF3CCnbhCRNSgx0V-OLS-17" target="VF3CCnbhCRNSgx0V-OLS-4">
          <mxGeometry relative="1" as="geometry">
            <Array as="points">
              <mxPoint x="-40" y="750" />
              <mxPoint x="-40" y="430" />
            </Array>
          </mxGeometry>
        </mxCell>
        <mxCell id="VF3CCnbhCRNSgx0V-OLS-17" value="3. Поиск" style="rounded=0;whiteSpace=wrap;html=1;" vertex="1" parent="1">
          <mxGeometry x="320" y="720" width="120" height="60" as="geometry" />
        </mxCell>
      </root>
    </mxGraphModel>
  </diagram>
</mxfile>
